<svg width="393" height="413" viewBox="0 0 393 413" fill="none" xmlns="http://www.w3.org/2000/svg">
<path d="M103.334 225.123V262.804C103.317 262.836 103.298 262.869 103.281 262.901C101.587 265.861 98.3974 267.855 94.7416 267.855C91.0858 267.855 87.8965 265.861 86.2025 262.901C86.1833 262.869 86.1661 262.836 86.1489 262.804V225.123H103.334Z" fill="black"/>
<path d="M86.1489 262.804C86.1661 262.836 86.1851 262.868 86.2022 262.901H86.1489V262.804Z" fill="black"/>
<path d="M103.334 262.804V262.901H103.281C103.3 262.868 103.317 262.836 103.334 262.804Z" fill="black"/>
<path d="M84.2158 227.446V202.988C84.2369 202.967 84.2598 202.946 84.2827 202.925C86.365 201.003 90.2865 199.708 94.7817 199.708C99.2769 199.708 103.199 201.003 105.281 202.925C105.304 202.946 105.327 202.967 105.348 202.988V227.446H84.2158Z" fill="#FFF9E9"/>
<path d="M272.1 189.356H243.611V227.599H272.1V189.356Z" fill="#666666"/>
<path d="M266.371 229.922V267.603C266.354 267.635 266.335 267.668 266.318 267.7C264.624 270.66 261.435 272.654 257.779 272.654C254.123 272.654 250.934 270.66 249.24 267.7C249.22 267.668 249.203 267.635 249.186 267.603V229.922H266.371Z" fill="black"/>
<path d="M247.259 232.863V208.405C247.28 208.384 247.303 208.363 247.326 208.342C249.408 206.42 253.33 205.125 257.825 205.125C262.32 205.125 266.242 206.42 268.324 208.342C268.347 208.363 268.37 208.384 268.391 208.405V232.863H247.259Z" fill="#FFF9E9"/>
<path d="M110.147 235.498H103.334V240.607H110.147V235.498Z" fill="#666666"/>
<path d="M244.695 219.24H239.431V245.561H244.695V219.24Z" fill="black"/>
<path d="M239.431 224.504H206.452V241.227H239.431V224.504Z" fill="#666666"/>
<path d="M276.59 219.24H271.016V245.561H276.59V219.24Z" fill="black"/>
<path d="M206.997 232.4H114.091C111.913 232.4 110.146 234.166 110.146 236.345V242.081C110.146 244.26 111.913 246.026 114.091 246.026H206.997C209.175 246.026 210.941 244.26 210.941 242.081V236.345C210.941 234.166 209.175 232.4 206.997 232.4Z" fill="#A40707" stroke="#FFF9E9" stroke-width="5" stroke-miterlimit="10"/>
<path d="M245.779 185.796H237.728V219.24H245.779V185.796Z" fill="#FFF9E9"/>
<path d="M277.828 186.261H269.777V219.24H277.828V186.261Z" fill="#FFF9E9"/>
<path d="M257.391 195.085C270.474 195.085 281.079 187.703 281.079 178.596C281.079 169.489 270.474 162.106 257.391 162.106C244.308 162.106 233.703 169.489 233.703 178.596C233.703 187.703 244.308 195.085 257.391 195.085Z" fill="#FFF9E9"/>
<path d="M249.184 242.309H244.54V244.941H249.184V242.309Z" fill="#666666"/>
<path d="M271.016 242.156H266.372V244.789H271.016V242.156Z" fill="#666666"/>
<path d="M237.727 195.085H208.773V200.194H237.727V195.085Z" fill="#666666"/>
<path d="M257.259 188.263C264.82 188.263 270.949 183.996 270.949 178.733C270.949 173.47 264.82 169.204 257.259 169.204C249.698 169.204 243.569 173.47 243.569 178.733C243.569 183.996 249.698 188.263 257.259 188.263Z" fill="#A40707"/>
<path d="M113.323 232.4L109.563 170.003L113.323 113.263H210.645L213.089 170.003L207.075 232.4H113.323Z" fill="#FFF9E9"/>
<path d="M205.987 169.229H114.946L120.212 118.605H199.485L205.987 169.229Z" fill="#E6E6E6"/>
<path d="M185.915 236.085H133.774C132.009 236.085 130.579 237.515 130.579 239.28C130.579 241.045 132.009 242.475 133.774 242.475H185.915C187.679 242.475 189.11 241.045 189.11 239.28C189.11 237.515 187.679 236.085 185.915 236.085Z" fill="#FFF9E9"/>
<path d="M293.777 151.733H275.353V157.307H293.777V151.733Z" fill="#666666"/>
<path d="M239.431 151.733H221.006V157.307H239.431V151.733Z" fill="#666666"/>
<path d="M272.1 150.03H242.529C237.654 150.03 233.703 153.981 233.703 158.855C233.703 163.729 237.654 167.68 242.529 167.68H272.1C276.975 167.68 280.926 163.729 280.926 158.855C280.926 153.981 276.975 150.03 272.1 150.03Z" fill="#FFF9E9"/>
<path d="M205.035 82.5428V97.0781H210.144V82.5428H205.035Z" fill="#666666"/>
<path d="M123.468 92.2788H199.169C206.435 92.2788 212.336 98.1774 212.336 105.445V113.336H110.302V105.445C110.302 98.1794 116.2 92.2788 123.468 92.2788Z" fill="#E6E6E6" stroke="#666666" stroke-width="6" stroke-miterlimit="10"/>
<path d="M213.735 63.4795H289.436C296.702 63.4795 302.603 69.3781 302.603 76.6458V84.5368H200.569V76.6458C200.569 69.38 206.467 63.4795 213.735 63.4795Z" fill="#E6E6E6" stroke="#666666" stroke-width="6" stroke-miterlimit="10"/>
<path d="M145.424 195.358C147.42 195.358 148.378 196.072 148.389 197.812V197.835C148.389 199.563 147.431 200.309 145.424 200.309H144.097V202.762H142.101V195.36H145.422L145.424 195.358ZM146.349 197.812C146.349 197.343 146.104 197.064 145.424 197.064H144.097V198.603H145.424C146.116 198.603 146.349 198.313 146.349 197.835V197.812Z" fill="#A40707"/>
<path d="M149.236 195.85C149.236 195.181 149.582 194.834 150.273 194.834C150.963 194.834 151.297 195.181 151.297 195.85C151.297 196.519 150.974 196.886 150.273 196.886C149.571 196.886 149.236 196.519 149.236 195.85ZM149.347 202.762V197.444H151.219V202.762H149.347Z" fill="#A40707"/>
<path d="M158.556 195.358V197.165H156.338V202.762H154.342V197.165H152.124V195.358H158.556Z" fill="#A40707"/>
<path d="M158.913 199.372V198.737C158.913 196.406 160.106 195.224 162.682 195.215C165.269 195.203 166.45 196.408 166.45 198.737V199.372C166.45 201.712 165.269 202.905 162.682 202.905C160.106 202.917 158.913 201.712 158.913 199.372ZM164.364 199.293V198.802C164.364 197.486 163.806 197.007 162.682 197.007C161.557 197.007 161.009 197.486 161.009 198.802V199.293C161.009 200.62 161.567 201.11 162.682 201.11C163.796 201.11 164.364 200.618 164.364 199.293Z" fill="#A40707"/>
<path d="M171.009 195.358C173.596 195.358 174.777 196.462 174.777 198.871V199.238C174.777 201.657 173.596 202.76 171.009 202.76H167.642V195.358H171.009ZM172.749 198.848C172.749 197.611 172.19 197.165 171.076 197.165H169.638V200.966H171.076C172.19 200.966 172.749 200.509 172.749 199.249V198.848Z" fill="#A40707"/>
<path d="M180.416 202.762L180.003 201.614H177.127L176.714 202.762H174.764L177.552 195.349H179.581L182.368 202.762H180.418H180.416ZM177.686 200.041H179.447L178.565 197.599L177.684 200.041H177.686Z" fill="#A40707"/>
<path d="M67.43 305.281C77.6977 305.281 82.6307 308.952 82.6881 317.901V318.015C82.6881 326.906 77.755 330.75 67.43 330.75H60.6041V343.369H50.3364V305.281H67.43ZM72.191 317.901C72.191 315.492 70.9291 314.058 67.43 314.058H60.6041V321.973H67.43C70.9864 321.973 72.191 320.482 72.191 318.015V317.901Z" fill="#FFF9E9"/>
<path d="M89.2256 307.805C89.2256 304.364 91.0038 302.585 94.5602 302.585C98.1166 302.585 99.8374 304.364 99.8374 307.805C99.8374 311.247 98.1739 313.14 94.5602 313.14C90.9464 313.14 89.2256 311.247 89.2256 307.805ZM89.7992 343.369V316.008H99.4359V343.369H89.7992Z" fill="#FFF9E9"/>
<path d="M139.359 305.281V314.574H127.944V343.369H117.677V314.574H106.262V305.281H139.359Z" fill="#FFF9E9"/>
<path d="M143.374 325.931V322.662C143.374 310.673 149.512 304.593 162.762 304.536C176.07 304.478 182.15 310.673 182.15 322.662V325.931C182.15 337.977 176.07 344.115 162.762 344.115C149.512 344.172 143.374 337.977 143.374 325.931ZM171.424 325.53V323.006C171.424 316.237 168.556 313.771 162.762 313.771C156.969 313.771 154.158 316.237 154.158 323.006V325.53C154.158 332.356 157.026 334.88 162.762 334.88C168.498 334.88 171.424 332.356 171.424 325.53Z" fill="#FFF9E9"/>
<path d="M207.791 305.281C221.099 305.281 227.179 310.96 227.179 323.35V325.243C227.179 337.69 221.099 343.369 207.791 343.369H190.468V305.281H207.791ZM216.739 323.235C216.739 316.868 213.871 314.574 208.135 314.574H200.735V334.134H208.135C213.871 334.134 216.739 331.782 216.739 325.3V323.235Z" fill="#FFF9E9"/>
<path d="M258.381 343.369L256.259 337.461H241.46L239.338 343.369H229.299L243.64 305.224H254.079L268.42 343.369H258.381ZM244.328 329.373H253.391L248.859 316.811L244.328 329.373Z" fill="#FFF9E9"/>
<path d="M290.274 305.281C300.542 305.281 305.475 308.952 305.532 317.901V318.015C305.532 326.906 300.599 330.75 290.274 330.75H283.448V343.369H273.181V305.281H290.274ZM295.035 317.901C295.035 315.492 293.773 314.058 290.274 314.058H283.448V321.973H290.274C293.831 321.973 295.035 320.482 295.035 318.015V317.901Z" fill="#FFF9E9"/>
<path d="M330.427 305.281C340.695 305.281 345.628 308.952 345.685 317.901V318.015C345.685 326.906 340.752 330.75 330.427 330.75H323.601V343.369H313.333V305.281H330.427ZM335.188 317.901C335.188 315.492 333.926 314.058 330.427 314.058H323.601V321.973H330.427C333.983 321.973 335.188 320.482 335.188 318.015V317.901Z" fill="#FFF9E9"/>
</svg>
